<?xml version="1.0" standalone="no"?>
<!DOCTYPE svg PUBLIC "-//W3C//DTD SVG 20010904//EN"
 "http://www.w3.org/TR/2001/REC-SVG-20010904/DTD/svg10.dtd">
<svg version="1.0" xmlns="http://www.w3.org/2000/svg"
 width="256.000000pt" height="256.000000pt" viewBox="0 0 256.000000 256.000000"
 preserveAspectRatio="xMidYMid meet">

<g transform="translate(0.000000,256.000000) scale(0.100000,-0.100000)"
fill="#000000" stroke="none">
<path d="M1035 2329 c-60 -32 -114 -58 -118 -59 -4 0 -3 9 3 19 5 11 10 22 10
26 0 3 -48 -27 -106 -66 -58 -39 -104 -72 -102 -74 2 -2 21 0 43 5 47 11 54 6
32 -18 -23 -25 -21 -42 3 -43 11 -1 25 -3 30 -4 6 -1 13 -3 17 -4 3 0 -2 -10
-12 -21 -10 -11 -13 -20 -7 -20 13 0 161 92 161 100 1 4 -14 4 -33 2 -19 -2
-40 -2 -47 0 -6 2 48 50 120 108 171 135 172 138 6 49z"/>
<path d="M1244 2176 c-93 -23 -167 -86 -205 -174 -11 -24 -24 -88 -29 -140
-10 -92 -20 -120 -55 -156 -23 -23 -3 -20 27 4 14 11 33 37 41 58 9 22 29 51
46 65 36 30 40 41 11 32 -29 -9 -24 4 6 15 29 11 24 29 -9 31 -17 1 -15 3 7 8
39 8 43 24 9 39 l-28 12 32 -5 c18 -2 35 0 38 5 3 6 2 10 -4 10 -6 0 -16 10
-22 23 l-12 22 26 -23 c28 -26 45 -15 27 17 -15 30 -12 38 5 14 9 -13 22 -20
30 -17 13 5 13 11 0 42 l-15 37 21 -27 c28 -38 39 -35 34 10 l-5 37 12 -32
c15 -44 28 -42 30 5 1 36 1 36 5 5 4 -34 23 -46 23 -15 0 9 5 24 11 32 8 11 9
7 6 -18 -2 -20 0 -31 7 -29 6 2 13 14 14 28 2 13 7 28 12 33 5 5 6 -10 3 -33
-7 -50 8 -54 26 -5 7 19 15 33 18 30 3 -3 1 -19 -5 -35 -15 -42 1 -39 27 5 12
20 24 34 27 32 3 -3 -5 -22 -17 -42 -11 -20 -16 -36 -10 -36 6 0 15 9 21 20 6
11 20 25 32 31 17 9 15 3 -12 -35 -18 -25 -34 -46 -36 -46 -1 0 -15 7 -30 15
-16 8 -52 15 -80 15 -94 0 -185 -85 -183 -172 0 -30 2 -28 14 17 25 96 116
142 228 116 49 -11 50 -11 89 24 21 20 54 43 73 52 19 9 35 20 35 24 0 15 -85
58 -145 73 -69 19 -101 19 -171 2z"/>
<path d="M726 2112 c-6 -10 63 -46 72 -37 4 3 1 14 -4 23 -12 19 -59 29 -68
14z"/>
<path d="M685 2081 c-3 -6 7 -16 22 -23 15 -7 30 -23 33 -36 3 -13 10 -22 15
-20 16 5 6 62 -12 76 -20 14 -49 16 -58 3z"/>
<path d="M650 2050 c0 -6 11 -16 25 -22 14 -6 28 -22 31 -35 9 -33 24 -29 24
6 0 20 -8 35 -22 45 -25 18 -58 21 -58 6z"/>
<path d="M770 2051 c0 -6 8 -16 18 -23 9 -7 18 -25 18 -39 1 -22 -2 -25 -21
-22 -17 4 -27 -3 -43 -30 -14 -25 -26 -34 -39 -31 -10 2 -25 0 -33 -6 -12 -8
-13 -12 -2 -19 11 -6 6 -19 -22 -56 -52 -67 -112 -199 -127 -274 -11 -59 -11
-65 6 -77 10 -8 26 -14 34 -14 9 -1 41 -9 71 -20 64 -23 90 -24 145 -8 l40 11
-41 11 c-43 12 -109 51 -69 42 94 -22 161 -18 167 12 3 12 16 -1 44 -44 76
-116 120 -154 179 -154 39 0 43 4 93 81 53 82 53 108 4 157 -20 20 -46 49 -57
64 -15 19 -31 27 -60 30 l-40 3 1 -49 c0 -42 -1 -46 -13 -30 -7 10 -13 30 -13
45 0 44 -69 53 -135 18 -25 -13 -56 -21 -82 -20 -28 1 -59 -7 -92 -24 -64 -32
-69 -32 -33 4 31 32 42 66 42 140 1 72 23 119 79 168 49 43 51 46 51 98 0 39
-4 54 -16 59 -24 9 -54 7 -54 -3z"/>
<path d="M615 2011 c-3 -10 -3 -25 0 -33 4 -11 -14 -33 -59 -69 -35 -30 -65
-57 -65 -61 -1 -4 9 -8 22 -10 20 -3 13 -12 -54 -73 -42 -38 -78 -73 -78 -77
-1 -4 54 31 121 77 67 47 125 85 130 85 4 0 8 5 8 10 0 6 -10 10 -22 10 -19 0
-16 4 18 35 l39 35 -23 19 c-12 11 -18 22 -13 25 5 4 19 -3 30 -16 12 -12 23
-19 26 -16 13 12 -8 56 -31 67 -34 15 -42 14 -49 -8z"/>
<path d="M1262 1987 c-42 -13 -79 -48 -88 -82 -8 -34 -3 -38 31 -25 43 16 41
4 -4 -21 -23 -12 -41 -27 -41 -32 0 -5 3 -7 8 -5 90 46 207 98 215 95 6 -2
-41 -29 -104 -60 -92 -45 -118 -63 -137 -93 -27 -43 -25 -48 8 -29 14 8 41 22
60 31 19 9 48 27 63 40 34 28 98 32 152 10 35 -15 35 -15 35 12 0 21 2 24 10
12 8 -12 10 -9 10 12 0 34 -20 78 -35 78 -7 0 -20 10 -31 21 -22 25 -75 50
-101 48 -10 -1 -33 -6 -51 -12z"/>
<path d="M1060 1810 c-11 -11 -20 -26 -20 -34 0 -7 -9 -25 -20 -39 -28 -35
-25 -45 5 -17 30 28 78 110 64 110 -5 0 -18 -9 -29 -20z"/>
<path d="M1278 1785 c-9 -21 -7 -29 16 -60 l28 -36 -25 -37 c-23 -36 -44 -152
-27 -152 13 0 33 31 36 53 6 74 23 119 57 152 27 26 37 31 41 20 3 -8 15 -15
26 -15 21 0 25 16 14 57 -6 21 -8 21 -27 8 -30 -21 -51 -19 -85 10 -37 31 -40
31 -54 0z"/>
<path d="M1216 1697 c-44 -76 -32 -104 17 -40 29 38 32 50 18 71 -6 10 -15 1
-35 -31z"/>
<path d="M1166 1715 c-11 -8 -30 -15 -43 -15 -13 0 -23 -4 -23 -10 0 -24 84 0
94 26 7 18 -4 17 -28 -1z"/>
<path d="M1270 1685 c0 -7 -6 -18 -12 -22 -31 -19 -40 -43 -33 -83 8 -48 25
-53 25 -7 0 17 9 43 20 57 21 26 27 70 10 70 -5 0 -10 -7 -10 -15z"/>
<path d="M1352 1678 c-5 -7 -12 -29 -16 -48 -4 -19 -9 -47 -13 -62 -6 -32 3
-35 36 -9 20 15 22 21 11 40 -9 18 -8 27 5 47 8 13 25 24 36 24 11 0 17 5 14
10 -9 14 -61 12 -73 -2z"/>
<path d="M1387 1643 c-13 -12 -7 -53 7 -53 20 0 26 12 19 38 -5 22 -14 27 -26
15z"/>
<path d="M1587 1628 c-176 -23 -342 -181 -392 -375 -8 -31 -15 -96 -15 -143 1
-250 133 -452 347 -530 53 -19 77 -22 155 -18 80 3 103 9 161 37 211 101 325
361 272 616 -56 269 -282 445 -528 413z m246 -70 c203 -97 315 -345 263 -586
-21 -100 -56 -172 -113 -233 -123 -133 -276 -178 -435 -129 -232 71 -374 351
-317 622 26 122 112 246 214 307 79 48 135 62 233 57 68 -3 94 -10 155 -38z"/>
<path d="M1573 1563 c-25 -5 -28 -18 -13 -57 8 -23 6 -28 -22 -42 -31 -16 -32
-16 -51 7 -17 22 -18 24 -1 36 9 7 21 10 27 6 5 -3 4 -9 -3 -13 -21 -13 -7
-28 17 -19 20 7 22 11 11 34 -14 30 -37 32 -72 4 l-26 -20 25 -33 24 -32 -33
-26 c-32 -26 -34 -26 -50 -9 -20 22 -20 37 0 45 12 4 14 1 9 -14 -7 -23 3 -26
28 -7 16 11 16 14 2 35 -21 29 -36 28 -70 -8 l-29 -30 34 -28 33 -28 -23 -41
c-21 -39 -24 -41 -49 -30 -14 6 -27 12 -29 13 -2 1 4 14 13 28 10 14 22 23 27
20 6 -4 6 -10 -1 -17 -14 -14 -14 -27 -1 -27 6 0 16 12 22 26 11 22 10 28 -7
40 -30 22 -39 17 -63 -31 -12 -25 -22 -47 -22 -49 0 -2 18 -11 39 -19 l39 -16
-9 -42 c-6 -23 -12 -45 -14 -49 -7 -11 -55 1 -55 14 0 24 13 56 20 51 5 -3 6
-15 3 -26 -4 -16 -2 -20 8 -17 23 8 17 59 -7 68 -32 12 -44 -2 -51 -58 l-6
-52 29 0 c43 0 52 -10 55 -59 3 -39 1 -45 -20 -53 -17 -6 -27 -5 -33 4 -11 18
-10 58 2 58 6 0 10 -9 10 -21 0 -12 5 -19 13 -16 6 2 12 14 12 27 0 19 -7 26
-33 31 -41 8 -47 -3 -37 -67 l7 -46 42 6 43 7 15 -45 c15 -45 15 -46 -9 -62
-29 -19 -31 -17 -39 27 -5 33 -5 33 9 10 17 -28 31 -14 21 24 -3 14 -7 25 -9
25 -1 0 -16 -5 -34 -11 -34 -12 -34 -15 -5 -86 17 -39 17 -39 59 -13 l32 20
27 -42 27 -41 -21 -21 -21 -21 -19 25 c-10 13 -16 29 -13 34 3 5 11 2 18 -7 7
-10 15 -17 19 -17 11 0 6 24 -8 43 -14 18 -16 18 -40 2 -34 -22 -33 -32 8 -80
l34 -39 27 32 27 32 36 -27 c20 -15 39 -28 41 -30 7 -5 -18 -53 -26 -53 -5 0
-19 10 -33 21 l-25 20 33 -6 c39 -8 42 6 6 30 -26 17 -27 16 -51 -8 l-26 -25
49 -36 c27 -19 52 -36 55 -36 3 0 14 17 23 38 18 39 18 39 57 28 33 -9 39 -14
39 -37 0 -34 -8 -40 -40 -26 -25 10 -25 10 -2 14 26 5 29 18 6 27 -29 11 -40
6 -51 -23 -10 -27 -9 -30 16 -40 14 -5 37 -11 51 -13 24 -3 29 4 46 70 2 7 19
12 39 12 31 0 35 -3 35 -25 0 -14 1 -28 3 -32 4 -10 -42 -13 -48 -3 -3 6 1 10
9 10 9 0 16 7 16 16 0 10 -7 14 -22 12 -18 -2 -24 -11 -26 -36 l-3 -33 48 3
48 3 -3 41 c-2 39 0 43 29 53 38 13 49 8 49 -25 0 -18 -5 -24 -22 -23 -13 0
-17 3 -10 6 14 5 17 33 3 33 -27 0 -37 -12 -33 -41 6 -39 14 -42 56 -22 40 19
39 16 27 60 -9 30 -7 35 20 54 24 17 33 18 44 9 21 -17 19 -33 -6 -48 -20 -13
-21 -12 -15 12 7 28 -5 34 -23 12 -15 -18 3 -71 21 -60 66 39 80 62 53 84 -8
7 -15 20 -15 30 0 10 7 23 15 30 16 13 21 0 6 -16 -6 -5 -2 -18 9 -32 l19 -23
31 42 c37 51 37 56 4 71 -21 10 -24 16 -19 37 10 39 29 53 21 16 -5 -24 -2
-33 14 -43 19 -11 22 -10 35 21 30 72 29 84 -4 90 -17 4 -31 12 -31 18 0 7 10
9 27 5 33 -9 43 5 43 61 0 40 -1 42 -32 45 -30 3 -33 6 -34 38 -1 26 -1 28 3
8 3 -22 10 -28 29 -28 20 0 24 5 24 29 0 15 -5 42 -11 59 -9 27 -15 31 -41 29
-26 -2 -33 3 -51 36 -18 35 -18 40 -4 54 13 14 17 13 32 -11 21 -31 12 -49
-10 -20 -11 15 -14 16 -15 3 0 -8 6 -23 13 -33 11 -15 17 -17 35 -7 24 13 21
24 -21 84 l-19 28 -22 -20 -22 -21 -27 28 c-39 41 -35 101 5 65 24 -22 23 -32
-4 -26 l-23 6 22 -24 c22 -22 24 -22 40 -6 16 16 15 19 -17 52 -34 36 -60 45
-60 23 -1 -34 -16 -39 -52 -18 -29 16 -34 25 -30 45 5 28 6 29 33 15 25 -14
25 -30 -1 -23 -27 7 -26 -14 1 -22 24 -8 55 16 45 34 -7 11 -79 51 -91 51 -3
0 -5 -10 -5 -22 0 -40 -14 -50 -54 -43 -31 6 -36 11 -36 36 0 24 4 29 25 29
15 0 25 -6 25 -15 0 -9 -6 -12 -16 -8 -12 4 -15 2 -12 -8 8 -25 45 -23 51 3 8
29 1 36 -50 44 l-43 7 0 -42 c0 -37 -3 -41 -24 -41 -13 0 -30 -2 -38 -5 -14
-5 -41 48 -30 59 9 10 52 6 52 -4 0 -5 -7 -10 -15 -10 -8 0 -15 -4 -15 -10 0
-5 11 -10 25 -10 21 0 25 5 25 30 0 26 -3 30 -27 29 -16 -1 -38 -4 -50 -6z
m235 -125 c96 -46 173 -155 192 -270 38 -243 -127 -455 -340 -435 -121 11
-204 75 -267 205 -33 69 -36 82 -36 166 0 106 22 176 79 250 36 47 103 93 157
107 54 14 164 2 215 -23z m246 -224 c3 -9 6 -23 6 -32 -1 -14 -3 -13 -13 4 -7
12 -18 19 -24 17 -7 -3 -13 2 -13 11 0 21 36 21 44 0z m16 -150 c0 -23 -4 -33
-11 -28 -6 3 -9 15 -6 25 3 12 0 19 -9 19 -8 0 -14 5 -14 10 0 6 9 10 20 10
16 0 20 -7 20 -36z m-25 -95 c9 -14 -3 -59 -15 -59 -6 0 -8 11 -4 25 4 15 2
25 -5 25 -6 0 -11 5 -11 10 0 13 27 13 35 -1z m-56 -113 c13 -16 -1 -56 -19
-56 -13 0 -13 13 1 27 8 8 8 13 0 17 -13 9 -15 26 -2 26 5 0 14 -6 20 -14z"/>
<path d="M1672 1393 c27 -26 28 -26 48 -8 11 10 20 23 20 28 0 6 -10 1 -23
-11 -22 -21 -23 -21 -35 -2 -7 11 -18 20 -24 20 -7 0 0 -12 14 -27z"/>
<path d="M1565 1390 c-20 -22 -6 -27 25 -8 16 11 23 9 40 -10 20 -22 50 -30
50 -14 0 18 -47 52 -72 52 -14 0 -33 -9 -43 -20z"/>
<path d="M1736 1379 c-24 -19 -28 -48 -4 -33 5 4 20 1 33 -6 16 -9 32 -9 51
-3 l28 9 -26 27 c-33 32 -47 34 -82 6z m69 -19 c3 -5 -1 -10 -9 -10 -8 0 -18
5 -21 10 -3 6 1 10 9 10 8 0 18 -4 21 -10z"/>
<path d="M1582 1358 c5 -15 37 -18 41 -3 1 6 -9 12 -22 13 -16 3 -22 -1 -19
-10z"/>
<path d="M1495 1343 c-20 -15 -20 -15 3 -10 15 3 32 -3 51 -19 34 -28 58 -30
89 -8 13 9 29 13 37 10 9 -3 15 1 15 9 0 17 -55 21 -65 5 -10 -16 -39 -11 -58
10 -20 24 -45 25 -72 3z"/>
<path d="M1715 1319 c-10 -16 34 -57 84 -80 25 -11 48 -24 51 -28 13 -22 45
-15 58 12 7 15 17 27 23 27 5 0 9 5 9 11 0 19 -45 4 -55 -18 -13 -31 -29 -29
-21 2 6 24 -7 35 -19 15 -3 -5 -12 -10 -19 -10 -16 0 -96 52 -96 63 0 5 13 -1
29 -12 32 -23 66 -27 77 -10 4 6 20 9 38 5 l31 -6 -24 20 c-28 24 -44 25 -61
5 -12 -14 -15 -14 -36 0 -27 18 -60 20 -69 4z"/>
<path d="M1452 1300 c9 -6 19 -24 23 -40 8 -36 46 -50 73 -28 9 8 35 20 57 27
47 16 87 41 65 41 -8 -1 -26 -7 -40 -15 -14 -8 -36 -14 -50 -15 -15 0 -32 -6
-39 -12 -10 -11 -15 -9 -26 7 -27 38 -36 45 -58 45 -19 -1 -20 -2 -5 -10z"/>
<path d="M1522 1288 c6 -18 28 -21 28 -4 0 9 -7 16 -16 16 -9 0 -14 -5 -12
-12z"/>
<path d="M1643 1256 c-27 -10 -91 -82 -81 -92 2 -2 23 -6 47 -10 32 -5 42 -4
37 4 -4 7 -16 12 -27 12 -11 0 -18 4 -14 9 3 6 17 6 33 1 17 -4 36 -4 46 2 16
9 16 8 6 -12 -6 -12 -8 -34 -5 -52 5 -21 4 -28 -4 -24 -6 4 -11 14 -11 22 0
12 -7 14 -29 9 -17 -3 -32 -2 -36 4 -3 6 -16 11 -27 11 -20 0 -20 -4 -14 -62
10 -102 72 -198 128 -198 57 0 124 102 135 206 6 54 5 57 -13 49 -10 -5 -32
-9 -49 -9 -16 0 -33 -5 -37 -11 -4 -5 -8 6 -8 25 0 32 3 35 32 37 18 2 40 -4
50 -14 21 -19 23 -6 4 31 -17 33 -80 76 -109 75 -12 -1 -36 -7 -54 -13z m97
-219 c0 -13 -28 -20 -55 -13 -38 10 -30 21 15 21 22 0 40 -4 40 -8z m-1 -53
c2 -2 -18 -4 -45 -4 -34 0 -44 3 -34 9 12 9 68 4 79 -5z m-19 -36 c0 -5 -11
-8 -25 -8 -14 0 -25 3 -25 8 0 4 11 7 25 7 14 0 25 -3 25 -7z"/>
<path d="M1431 1232 c-7 -12 -4 -24 10 -41 21 -26 25 -26 31 4 2 12 -2 19 -9
18 -16 -4 -17 9 -1 25 9 9 8 12 -5 12 -9 0 -21 -8 -26 -18z"/>
<path d="M1557 1222 c-10 -11 -31 -22 -48 -26 -16 -3 -29 -10 -29 -15 0 -16
62 -1 84 19 10 10 17 23 14 30 -2 7 -10 5 -21 -8z"/>
<path d="M1827 1190 c9 -17 26 -30 38 -31 19 -1 18 -1 -2 -7 -24 -7 -21 -16
13 -45 23 -19 74 -15 74 5 0 6 -9 8 -20 5 -22 -6 -46 25 -35 43 3 6 -4 14 -17
19 -13 5 -30 16 -37 25 -23 27 -33 18 -14 -14z"/>
<path d="M1920 1202 c0 -11 -5 -22 -10 -24 -7 -2 -6 -10 3 -22 8 -11 19 -16
25 -12 17 10 15 51 -3 66 -12 10 -15 9 -15 -8z"/>
<path d="M1490 1155 c-7 -9 -21 -13 -35 -9 -13 3 -26 1 -29 -5 -4 -7 1 -11 13
-11 10 0 21 -6 23 -12 6 -17 78 21 78 39 0 18 -35 16 -50 -2z"/>
<path d="M1750 1150 c0 -5 9 -10 20 -10 11 0 20 5 20 10 0 6 -9 10 -20 10 -11
0 -20 -4 -20 -10z"/>
<path d="M1518 1098 c-2 -27 -8 -34 -29 -36 -16 -2 -29 3 -32 11 -4 10 1 13
19 9 14 -2 24 0 24 7 0 12 -35 14 -63 2 -17 -6 -16 -9 8 -35 22 -23 32 -27 58
-22 34 7 50 23 42 44 -3 8 -5 22 -5 33 0 32 -19 21 -22 -13z"/>
<path d="M1840 1071 c0 -59 45 -80 91 -42 28 22 20 38 -9 20 -27 -17 -50 -5
-54 27 -5 46 -28 42 -28 -5z"/>
<path d="M1880 1070 c0 -5 9 -10 21 -10 11 0 17 5 14 10 -3 6 -13 10 -21 10
-8 0 -14 -4 -14 -10z"/>
<path d="M1526 1021 c-4 -6 -4 -21 0 -35 4 -18 1 -26 -14 -30 -27 -9 -32 -27
-16 -57 l13 -24 1 30 c0 22 6 33 23 40 17 8 22 18 22 44 0 34 -17 52 -29 32z"/>
<path d="M1820 979 c0 -33 4 -42 21 -46 17 -5 20 -11 15 -36 -5 -25 -4 -28 9
-17 22 18 19 57 -5 70 -15 8 -18 15 -11 28 11 21 4 42 -15 42 -10 0 -14 -12
-14 -41z"/>
<path d="M1490 1001 c0 -5 -12 -11 -27 -13 -14 -2 -28 -8 -30 -14 -2 -7 9 -9
34 -5 25 4 39 12 41 24 2 9 -1 17 -7 17 -6 0 -11 -4 -11 -9z"/>
<path d="M1870 980 c0 -13 10 -24 26 -30 35 -14 44 -12 38 5 -4 8 -15 15 -25
15 -10 0 -19 7 -19 15 0 8 -4 15 -10 15 -5 0 -10 -9 -10 -20z"/>
<path d="M1572 943 c-7 -13 -19 -23 -27 -23 -8 0 -15 -5 -15 -11 0 -6 9 -8 23
-4 31 10 39 20 35 41 -4 17 -5 17 -16 -3z"/>
<path d="M1790 933 c0 -12 9 -27 19 -33 26 -13 31 -13 31 5 0 8 -5 15 -11 15
-7 0 -18 8 -25 18 -12 16 -13 15 -14 -5z"/>
<path d="M1583 888 c-6 -7 -13 -21 -17 -32 -4 -11 -12 -16 -21 -12 -8 3 -15 1
-15 -3 0 -5 7 -11 15 -15 15 -5 45 18 45 35 0 13 28 11 32 -3 2 -6 10 -8 17
-4 9 6 8 12 -5 27 -20 22 -37 24 -51 7z"/>
<path d="M1739 874 c-8 -10 -24 -14 -46 -12 -26 3 -33 0 -33 -13 0 -24 -18
-33 -36 -18 -19 16 -30 4 -14 -16 17 -21 46 -19 62 4 14 20 14 20 26 0 7 -10
21 -19 31 -19 21 0 48 27 37 37 -4 4 -11 1 -16 -6 -9 -15 -40 -8 -40 9 0 5 9
10 19 10 11 0 23 5 26 10 10 16 19 12 30 -12 10 -24 45 -38 45 -19 0 6 -7 11
-15 11 -9 0 -15 9 -15 25 0 20 -5 25 -24 25 -13 0 -29 -7 -37 -16z"/>
<path d="M915 1345 c11 -60 35 -106 67 -124 35 -20 36 -31 2 -31 -26 0 -26 -2
-20 -42 4 -23 9 -44 12 -47 12 -12 144 145 144 172 0 4 -15 7 -34 7 -51 0 -86
16 -134 63 l-44 42 7 -40z"/>
<path d="M1081 1151 c-22 -26 -63 -63 -90 -82 -28 -19 -51 -40 -51 -46 -1 -38
93 14 141 78 23 30 54 99 44 99 -2 0 -21 -22 -44 -49z"/>
<path d="M1052 1019 c-18 -16 -46 -32 -63 -36 -45 -9 -45 -23 0 -23 33 0 47 7
76 35 56 56 45 77 -13 24z"/>
<path d="M890 867 c-47 -57 -110 -166 -124 -212 -5 -18 -1 -20 37 -21 24 0 58
-8 76 -17 l32 -16 40 61 c35 55 79 168 79 203 0 7 -20 25 -45 38 l-45 26 -50
-62z m46 -74 c-19 -32 -47 -71 -61 -88 l-26 -30 22 44 c23 49 90 143 97 136 2
-2 -12 -30 -32 -62z"/>
<path d="M1066 819 c-7 -43 -49 -138 -91 -205 l-25 -41 37 -26 c20 -14 40 -24
44 -21 27 16 72 234 62 302 -7 44 -19 40 -27 -9z"/>
<path d="M1152 722 c-6 -53 -20 -125 -31 -159 -20 -67 -18 -73 34 -73 18 0 24
7 29 34 15 77 6 279 -13 290 -4 3 -12 -39 -19 -92z"/>
<path d="M1260 615 c0 -28 -4 -67 -9 -87 -8 -36 -8 -38 16 -38 l26 0 -6 76
c-7 90 -27 126 -27 49z"/>
<path d="M760 576 c-5 -15 -13 -39 -16 -54 -11 -43 -39 -93 -84 -146 -22 -27
-38 -51 -36 -53 9 -9 65 9 90 28 13 11 27 33 31 49 9 43 28 50 20 8 -8 -42 12
-63 51 -54 37 10 124 100 124 129 0 49 -58 98 -133 112 -33 7 -38 5 -47 -19z"/>
<path d="M1532 500 c-29 -18 -31 -22 -21 -43 6 -12 23 -32 38 -44 l26 -22 -41
-1 c-48 0 -54 -11 -54 -95 0 -87 8 -89 131 -33 l66 30 7 86 7 87 -30 27 c-38
34 -82 36 -129 8z m102 -92 c3 -17 4 -34 1 -37 -9 -8 -25 21 -25 47 0 33 17
27 24 -10z"/>
</g>
</svg>
